<svg xmlns="http://www.w3.org/2000/svg" version="1.1" xmlns:xlink="http://www.w3.org/1999/xlink" width="512" height="512" x="0" y="0" viewBox="0 0 152 152" style="enable-background:new 0 0 512 512" xml:space="preserve" class=""><g><linearGradient id="a" x1="54.78" x2="124.18" y1="65.9" y2="135.29" gradientUnits="userSpaceOnUse"><stop offset="0" stop-color="#402a6b"></stop><stop offset=".25" stop-color="#402a6b" stop-opacity=".79"></stop><stop offset=".76" stop-color="#412a6b" stop-opacity=".24"></stop><stop offset=".97" stop-color="#412a6b" stop-opacity="0"></stop></linearGradient><g data-name="Layer 2"><g data-name="44.meetme"><circle cx="76" cy="76" r="76" fill="#6c46b3" opacity="1" data-original="#6c46b3" class=""></circle><path fill="url(#a)" d="M149.42 95.69A76 76 0 0 1 76 152l-38-38 10.43-20.72c-2.89-48.56 53.14-45.44 53.14-45.44z" opacity="1" data-original="url(#a)" class=""></path><path fill="#ffffff" d="M113 67.42a38 38 0 0 0-74.87 5.76 35.67 35.67 0 0 0 4.55 20.55 2.42 2.42 0 0 1 .22 2c-.83 3-1.45 5.35-4.88 18.24 2-.46 9.26-2.47 18.12-4.78a2.41 2.41 0 0 1 1.59.13A38 38 0 0 0 113 67.42zm-30.2-8.36a4.72 4.72 0 1 1 0 9.44 4.72 4.72 0 0 1 0-9.44zm-19.26 3.47a4.79 4.79 0 1 1-4.81 4.77 4.88 4.88 0 0 1 4.81-4.77zm37.33 15.71C88.83 95.08 69.6 97.46 53.68 87a2.91 2.91 0 0 1-.89-4.15A3 3 0 0 1 57 82c14.63 9.37 30.14 5.8 39.13-7.13a2.93 2.93 0 1 1 4.77 3.36z" opacity="1" data-original="#ffffff"></path></g></g></g></svg>