<svg xmlns="http://www.w3.org/2000/svg" version="1.1" xmlns:xlink="http://www.w3.org/1999/xlink" width="512" height="512" x="0" y="0" viewBox="0 0 453.54 453.54" style="enable-background:new 0 0 512 512" xml:space="preserve" class=""><g><path fill="#6559a2" d="M453.542 119.108V334.45c0 65.777-53.315 119.092-119.093 119.092H119.091C53.314 453.542-.002 400.228-.002 334.45V119.108c0-65.777 53.315-119.11 119.093-119.11h215.357c65.778 0 119.094 53.333 119.094 119.11z" opacity="1" data-original="#6559a2"></path><path fill="#47307b" d="M453.542 268.726v65.725c0 65.777-53.315 119.092-119.093 119.092H221.045l-71.857-64.978-.337.143-28.444-40.142 11.004-62.436c-.338-.497-.675-.978-1.013-1.493-15.325-20.248-24.462-45.438-24.462-72.817 0-66.737 54.098-120.834 120.835-120.834 42.187 0 79.306 21.636 100.924 54.399l18.809 26.543z" opacity="1" data-original="#47307b" class=""></path><path fill="#ffffff" d="M226.77 90.989c-66.736 0-120.837 54.095-120.837 120.839 0 27.982 9.538 53.72 25.502 74.203l-11.023 62.534 58.436-25.799c14.694 6.355 30.892 9.896 47.921 9.896 66.736 0 120.837-54.097 120.837-120.834.001-66.744-54.1-120.839-120.836-120.839z" opacity="1" data-original="#ffffff"></path><g fill="#6559a2"><circle cx="189.604" cy="184.66" r="13.88" fill="#6559a2" opacity="1" data-original="#6559a2"></circle><path d="M262.107 170.782c0 7.663-6.212 13.878-13.879 13.878s-13.88-6.215-13.88-13.878c0-7.671 6.212-13.883 13.88-13.883 7.667 0 13.879 6.212 13.879 13.883zM297.255 204.554c4.691 2.068 6.911 6.545 4.382 10.156-24.772 36.104-76.886 55.54-128.268 35.205-5.036-1.967-8.348-8.373-7.109-13.564 1.236-5.226 5.863-7.34 10.025-5.434 43.878 19.664 88.342 3.642 109.134-25.245 2.075-2.743 7.131-3.194 11.836-1.118 0-.007 0-.007 0 0z" fill="#6559a2" opacity="1" data-original="#6559a2"></path></g></g></svg>