<svg xmlns="http://www.w3.org/2000/svg" version="1.1" xmlns:xlink="http://www.w3.org/1999/xlink" x="0" y="0" viewBox="0 0 65 65" style="enable-background:new 0 0 512 512" xml:space="preserve" class=""><g><path d="M47.19 2.56H17.81c-2.47 0-4.48 2.01-4.48 4.48v50.91c0 2.47 2.01 4.48 4.48 4.48h29.38c2.47 0 4.48-2.01 4.48-4.48V7.05c0-2.47-2.01-4.48-4.48-4.48zm2.54 55.39c0 1.4-1.14 2.54-2.54 2.54H17.81c-1.4 0-2.54-1.14-2.54-2.54v-2.81h34.46zm0-4.75H15.27V13.18h34.46v40.03zm0-41.97H15.27V7.05c0-1.4 1.14-2.54 2.54-2.54h29.38c1.4 0 2.54 1.14 2.54 2.54v4.19z" fill="currentColor" opacity="1" data-original="#000000"></path><path d="M18.52 47.85h7.43c.54 0 .97-.43.97-.97s-.43-.97-.97-.97h-6.46v-6.82c0-.54-.43-.97-.97-.97s-.97.43-.97.97v7.79c0 .54.43.97.97.97zM46.48 37.84c-.54 0-.97.43-.97.97v7.1h-6.57c-.54 0-.97.43-.97.97s.43.97.97.97h7.54c.54 0 .97-.43.97-.97v-8.07c0-.54-.43-.97-.97-.97zM38.78 19.88h6.73v6.68c0 .54.43.97.97.97s.97-.43.97-.97v-7.65c0-.54-.43-.97-.97-.97h-7.7c-.54 0-.97.43-.97.97s.43.97.97.97zM18.52 27.49c.54 0 .97-.43.97-.97v-6.64h6.73c.54 0 .97-.43.97-.97s-.43-.97-.97-.97h-7.7c-.54 0-.97.43-.97.97v7.61c0 .54.43.97.97.97z" fill="currentColor" opacity="1" data-original="#000000"></path><path d="M22.09 23.54v6.02c0 .54.43.97.97.97h6.02c.54 0 .97-.43.97-.97v-6.02c0-.54-.43-.97-.97-.97h-6.02c-.54 0-.97.43-.97.97zm1.94.97h4.08v4.08h-4.08zM35.77 30.53h6.02c.54 0 .97-.43.97-.97v-6.02c0-.54-.43-.97-.97-.97h-6.02c-.54 0-.97.43-.97.97v6.02c0 .54.43.97.97.97zm.97-6.02h4.08v4.08h-4.08zM29.07 35.11h-6.02c-.54 0-.97.43-.97.97v6.02c0 .54.43.97.97.97h6.02c.54 0 .97-.43.97-.97v-6.02c0-.54-.43-.97-.97-.97zm-.97 6.02h-4.08v-4.08h4.08zM23.06 34.07h3.01c.54 0 .97-.43.97-.97s-.43-.97-.97-.97h-3.01c-.54 0-.97.43-.97.97s.43.97.97.97zM32.61 30.53c.54 0 .97-.43.97-.97v-6.02c0-.54-.43-.97-.97-.97s-.97.43-.97.97v6.02c0 .54.43.97.97.97zM37.84 32.13h-9.21c-.54 0-.97.43-.97.97s.43.97.97.97h9.21c.54 0 .97-.43.97-.97s-.43-.97-.97-.97zM38.78 42.53h3.85c.54 0 .97-.43.97-.97s-.43-.97-.97-.97h-3.85c-.54 0-.97.43-.97.97s.43.97.97.97zM37.81 37.91c0 .54.43.97.97.97h2.57c.54 0 .97-.43.97-.97v-4.6H43c.54 0 .97-.43.97-.97s-.43-.97-.97-.97h-1.65c-.54 0-.97.43-.97.97v4.6h-1.6c-.54 0-.97.43-.97.97zM27.32 59.11h7.79c.54 0 .97-.43.97-.97s-.43-.97-.97-.97h-7.79c-.54 0-.97.43-.97.97s.43.97.97.97z" fill="currentColor" opacity="1" data-original="#000000"></path></g></svg>