<svg xmlns="http://www.w3.org/2000/svg" version="1.1" xmlns:xlink="http://www.w3.org/1999/xlink" x="0" y="0" viewBox="0 0 152 152" style="enable-background:new 0 0 512 512" xml:space="preserve" class=""><g><g data-name="Layer 2"><g data-name="07.Love"><circle cx="76" cy="76" r="76" fill="#eb2540" opacity="1" data-original="#eb2540"></circle><path fill="#ffffff" d="M111.94 84.91c-5.43 6.54-13.24 13.19-22.27 20.9-3.07 2.62-6.58 5.6-10.21 8.77a5.25 5.25 0 0 1-6.92 0c-3.63-3.17-7.14-6.15-10.21-8.77-9-7.71-16.84-14.36-22.27-20.9-6.06-7.31-8.89-14.27-8.89-21.83a28 28 0 0 1 7.11-19.14 24.12 24.12 0 0 1 17.94-7.82A22.48 22.48 0 0 1 70.3 41a28.31 28.31 0 0 1 5.7 5.94A28.83 28.83 0 0 1 81.7 41a22.48 22.48 0 0 1 14.08-4.88 24.08 24.08 0 0 1 17.93 7.82 28 28 0 0 1 7.12 19.14c0 7.56-2.83 14.52-8.89 21.83z" data-name="05.Love" opacity="1" data-original="#ffffff"></path></g></g></g></svg>