<svg xmlns="http://www.w3.org/2000/svg" version="1.1" xmlns:xlink="http://www.w3.org/1999/xlink" x="0" y="0" viewBox="0 0 24 25" style="enable-background:new 0 0 512 512" xml:space="preserve" class=""><g><g fill="currentColor"><path d="M12 11.35c-.88 0-1.6.72-1.6 1.6s.72 1.6 1.6 1.6 1.6-.72 1.6-1.6-.72-1.6-1.6-1.6zM12 17.75c-.88 0-1.6.72-1.6 1.6s.72 1.6 1.6 1.6 1.6-.72 1.6-1.6-.72-1.6-1.6-1.6zM12 8.15c.88 0 1.6-.72 1.6-1.6s-.72-1.6-1.6-1.6-1.6.72-1.6 1.6.72 1.6 1.6 1.6z" fill="currentColor" opacity="1" data-original="#000000"></path></g></g></svg>