<svg xmlns="http://www.w3.org/2000/svg" version="1.1" xmlns:xlink="http://www.w3.org/1999/xlink" x="0" y="0" viewBox="0 0 64 64" style="enable-background:new 0 0 512 512" xml:space="preserve" class=""><g><g fill="currentColor"><path d="M47.5 27.5c2.45 0 4.5 2.04 4.5 4.5 0 2.45-2.05 4.5-4.5 4.5S43 34.45 43 32c0-2.46 2.05-4.5 4.5-4.5zM32 27.5c2.45 0 4.5 2.04 4.5 4.5 0 2.45-2.05 4.5-4.5 4.5s-4.5-2.05-4.5-4.5c0-2.46 2.05-4.5 4.5-4.5zM16.5 27.5c2.45 0 4.5 2.04 4.5 4.5 0 2.45-2.05 4.5-4.5 4.5S12 34.45 12 32c0-2.46 2.05-4.5 4.5-4.5z" fill="currentColor" opacity="1" data-original="#9b9b9b"></path></g></g></svg>